<?xml version="1.0" standalone="no"?>
<!DOCTYPE svg PUBLIC "-//W3C//DTD SVG 20010904//EN"
 "http://www.w3.org/TR/2001/REC-SVG-20010904/DTD/svg10.dtd">
<svg version="1.0" xmlns="http://www.w3.org/2000/svg"
 width="512.000000pt" height="512.000000pt" viewBox="0 0 512.000000 512.000000"
 preserveAspectRatio="xMidYMid meet">

<g transform="translate(0.000000,512.000000) scale(0.100000,-0.100000)"
fill="#000000" stroke="none">
<path d="M676 4637 c-615 -280 -632 -290 -608 -332 5 -10 275 -139 612 -292
584 -266 603 -274 634 -262 185 77 1181 541 1188 554 25 43 8 52 -609 333
-330 149 -604 272 -609 272 -5 0 -279 -123 -608 -273z"/>
<path d="M3221 4636 c-609 -279 -627 -289 -603 -331 7 -14 1004 -478 1188
-553 30 -13 51 -4 635 262 420 191 606 280 612 294 6 12 5 27 -1 38 -10 19
-1195 564 -1222 563 -8 -1 -282 -124 -609 -273z"/>
<path d="M77 4192 c-15 -17 -17 -78 -17 -669 0 -606 1 -651 17 -666 26 -23
1111 -507 1137 -507 12 0 27 5 34 12 9 9 12 171 12 668 0 613 -1 658 -18 672
-21 18 -1116 508 -1135 508 -8 0 -21 -8 -30 -18z"/>
<path d="M1893 3961 c-303 -136 -559 -253 -567 -260 -14 -12 -16 -85 -16 -670
0 -498 3 -660 12 -669 7 -7 22 -12 34 -12 28 0 1135 495 1146 512 4 7 8 306 8
664 0 618 -1 652 -18 667 -10 10 -25 17 -33 16 -8 0 -262 -111 -566 -248z"/>
<path d="M2627 4192 c-15 -17 -17 -78 -17 -668 0 -357 4 -655 8 -662 11 -17
1118 -512 1146 -512 12 0 27 5 34 12 9 9 12 171 12 668 0 613 -1 658 -17 672
-22 18 -1117 508 -1136 508 -8 0 -21 -8 -30 -18z"/>
<path d="M4444 3962 c-304 -136 -559 -254 -568 -261 -14 -12 -16 -79 -16 -670
0 -498 3 -660 12 -669 7 -7 22 -12 34 -12 26 0 1111 484 1137 507 16 15 17 60
17 668 0 619 -1 653 -18 668 -10 10 -25 17 -33 17 -8 -1 -262 -112 -565 -248z"/>
<path d="M1947 2501 c-324 -148 -593 -273 -599 -279 -5 -5 -8 -22 -6 -38 3
-26 30 -40 602 -301 330 -150 607 -273 615 -273 9 0 285 122 614 272 518 236
599 276 604 297 3 13 2 30 -3 38 -12 19 -1187 553 -1216 553 -13 -1 -288 -122
-611 -269z"/>
<path d="M1352 2058 c-9 -9 -12 -171 -12 -668 0 -613 1 -658 18 -672 21 -18
1116 -508 1135 -508 8 0 21 8 30 18 15 17 17 78 17 668 0 357 -4 655 -8 662
-11 17 -1118 512 -1146 512 -12 0 -27 -5 -34 -12z"/>
<path d="M3151 1820 c-305 -138 -558 -255 -563 -262 -4 -7 -8 -303 -8 -658 0
-568 2 -648 16 -668 8 -12 22 -22 30 -22 19 0 1114 490 1137 508 16 14 17 59
17 672 0 497 -3 659 -12 668 -7 7 -23 12 -37 11 -15 0 -275 -112 -580 -249z"/>
</g>
</svg>
